<svg xmlns="http://www.w3.org/2000/svg" xmlns:xlink="http://www.w3.org/1999/xlink" viewBox="0 0 430 430" width="430" height="430" preserveAspectRatio="xMidYMid meet" style="width: 100%; height: 100%; transform: translate3d(0px, 0px, 0px); content-visibility: visible;"><defs><clipPath id="__lottie_element_95"><rect width="430" height="430" x="0" y="0"/></clipPath><clipPath id="__lottie_element_97"><path d="M0,0 L430,0 L430,430 L0,430z"/></clipPath></defs><g clip-path="url(#__lottie_element_95)"><g clip-path="url(#__lottie_element_97)" transform="matrix(1,0,0,1,0,0)" opacity="1" style="display: block;"><g transform="matrix(0.9999289512634277,0.011920296587049961,-0.011920296587049961,0.9999289512634277,-114.8375015258789,39.46205520629883)" opacity="1" style="display: block;"><g opacity="1" transform="matrix(1,0,0,1,395.04998779296875,236.6269989013672)"><path class="primary" fill="rgb(249,201,192)" fill-opacity="1" d=" M72.18800354003906,34.48500061035156 C72.18800354003906,34.48500061035156 13.208000183105469,73.94300079345703 -16.28700065612793,93.66699981689453 C-16.28700065612793,93.66699981689453 -49.4051628112793,64.98384094238281 -71.76402282714844,42.30347442626953 C-85.65499877929688,28.194286346435547 -101.3550033569336,-9.788000106811523 -101.3550033569336,-9.788000106811523 C-88.6500015258789,-9.788000106811523 -57.516998291015625,-21.42099952697754 -57.516998291015625,-34.125999450683594 C-57.516998291015625,-34.125999450683594 -13.017000198364258,-20.76799964904785 -13.017000198364258,-20.76799964904785 C-13.017000198364258,-20.76799964904785 -46.07500076293945,-52.31700134277344 -46.07500076293945,-52.31700134277344 C-57.13399887084961,-56.05500030517578 -63.130001068115234,-68.16699981689453 -59.4010009765625,-79.22599792480469 C-56.42100143432617,-88.06400299072266 -48.095001220703125,-93.66699981689453 -39.229000091552734,-93.66699981689453 C-40.01499938964844,-93.64900207519531 -34.7140007019043,-93.31099700927734 -32.48400115966797,-92.552001953125 C-32.48400115966797,-92.552001953125 -13.017000198364258,-64.11000061035156 -13.017000198364258,-64.11000061035156 C-13.017000198364258,-64.11000061035156 19.47599983215332,-52.78499984741211 19.47599983215332,-52.78499984741211 C19.47599983215332,-52.78499984741211 19.511999130249023,-52.7760009765625 19.520999908447266,-52.757999420166016 C24.51099967956543,-50.1349983215332 28.459999084472656,-45.55500030517578 30.09600067138672,-39.733001708984375 C30.09600067138672,-39.733001708984375 61.393001556396484,0.9419999718666077 61.393001556396484,0.9419999718666077 C61.393001556396484,0.9419999718666077 72.18800354003906,34.48500061035156 72.18800354003906,34.48500061035156z"/></g><g opacity="0.5" transform="matrix(1,0,0,1,362.0010070800781,306.1130065917969)" style="mix-blend-mode: multiply;"><g opacity="1" transform="matrix(1,0,0,1,0,0)"><path class="primary" fill="rgb(249,201,192)" fill-opacity="1" d=" M35.52399826049805,11.303000450134277 C19.920000076293945,-3.743000030517578 4.315999984741211,-18.790000915527344 -11.288000106811523,-33.83599853515625 C-24.691999435424805,-46.76100158691406 -36.5989990234375,-61.44300079345703 -51.499000549316406,-72.61000061035156 C-55.05099868774414,-75.27200317382812 -66.14399719238281,-78.12200164794922 -64.75299835205078,-73.90599822998047 C-58.72999954223633,-55.64699935913086 -48.77309036254883,-38.149173736572266 -35.512672424316406,-24.228286743164062 C-16.703643798828125,-4.486817359924316 4.389999866485596,14.147000312805176 16.76099967956543,24.180999755859375"/></g></g></g><g transform="matrix(0.9999289512634277,0.011920296587049961,-0.011920296587049961,0.9999289512634277,-30.4017333984375,-38.5369873046875)" opacity="1" style="display: block;"><path class="secondary" fill="rgb(75,179,253)" fill-opacity="1" d=" M314.21,335.1 C314.21,347.8 303.83,358.18 291.13,358.18 C291.13,358.18 185.1,358.18 185.1,358.18 C172.4,358.18 162.01,347.8 162.01,335.1 C162.01,335.1 162.01,112.97 162.01,112.97 C162.01,100.27 172.4,89.88 185.1,89.88 C185.1,89.88 291.13,89.88 291.13,89.88 C303.83,89.88 314.21,100.27 314.21,112.97 C314.21,112.97 314.21,335.1 314.21,335.1z M257.44,116.99 C257.44,116.99 218.78,116.99 218.78,116.99"/><g opacity="1" transform="matrix(1,0,0,1,238.11300659179688,224.03199768066406)"><path stroke-linecap="round" stroke-linejoin="round" fill-opacity="0" class="tertiary" stroke="rgb(58,51,71)" stroke-opacity="1" stroke-width="7" d=" M76.0999984741211,111.06500244140625 C76.0999984741211,123.7699966430664 65.71700286865234,134.15199279785156 53.012001037597656,134.15199279785156 C53.012001037597656,134.15199279785156 -53.012001037597656,134.15199279785156 -53.012001037597656,134.15199279785156 C-65.71700286865234,134.15199279785156 -76.0999984741211,123.7699966430664 -76.0999984741211,111.06500244140625 C-76.0999984741211,111.06500244140625 -76.0999984741211,-111.06500244140625 -76.0999984741211,-111.06500244140625 C-76.0999984741211,-123.76000213623047 -65.71700286865234,-134.15199279785156 -53.012001037597656,-134.15199279785156 C-53.012001037597656,-134.15199279785156 53.012001037597656,-134.15199279785156 53.012001037597656,-134.15199279785156 C65.71700286865234,-134.15199279785156 76.0999984741211,-123.76000213623047 76.0999984741211,-111.06500244140625 C76.0999984741211,-111.06500244140625 76.0999984741211,111.06500244140625 76.0999984741211,111.06500244140625z"/></g><g opacity="1" transform="matrix(1,0,0,1,238.11300659179688,116.98899841308594)"><path stroke-linecap="round" stroke-linejoin="round" fill-opacity="0" class="tertiary" stroke="rgb(58,51,71)" stroke-opacity="1" stroke-width="7" d=" M19.32900047302246,0 C19.32900047302246,0 -19.32900047302246,0 -19.32900047302246,0"/></g></g><g transform="matrix(0.9999289512634277,0.011920296587049961,-0.011920296587049961,0.9999289512634277,-30.4017333984375,-38.5369873046875)" opacity="1" style="display: block;"><g opacity="1" transform="matrix(1,0,0,1,241.82000732421875,226.7890625)"><path stroke-linecap="round" stroke-linejoin="round" fill-opacity="0" class="quaternary" stroke="rgb(235,230,239)" stroke-opacity="1" stroke-width="7" d=" M-46.895999908447266,0 C-46.895999908447266,0 36.895999908447266,0 36.895999908447266,0"/></g><g opacity="1" transform="matrix(1,0,0,1,0,0)"><g opacity="1" transform="matrix(1,0,0,1,201.24899291992188,191.39999389648438)"><path stroke-linecap="round" stroke-linejoin="round" fill-opacity="0" class="quaternary" stroke="rgb(235,230,239)" stroke-opacity="1" stroke-width="7" d=" M85.19100189208984,57.70800018310547 C85.19100189208984,57.70800018310547 85.19100189208984,73.98200225830078 85.19100189208984,73.98200225830078 C85.19100189208984,80.1729965209961 80.16799926757812,85.18599700927734 73.98699951171875,85.18599700927734 C73.98699951171875,85.18599700927734 57.70399856567383,85.18599700927734 57.70399856567383,85.18599700927734 M-13.73900032043457,57.70800018310547 C-13.73900032043457,57.70800018310547 -13.73900032043457,73.98200225830078 -13.73900032043457,73.98200225830078 C-13.73900032043457,80.1729965209961 -8.72599983215332,85.18599700927734 -2.5350000858306885,85.18599700927734 C-2.5350000858306885,85.18599700927734 13.73900032043457,85.18599700927734 13.73900032043457,85.18599700927734 M57.70399856567383,-13.744000434875488 C57.70399856567383,-13.744000434875488 73.98699951171875,-13.744000434875488 73.98699951171875,-13.744000434875488 C80.16799926757812,-13.744000434875488 85.19100189208984,-8.720000267028809 85.19100189208984,-2.5390000343322754 C85.19100189208984,-2.5390000343322754 85.19100189208984,13.744000434875488 85.19100189208984,13.744000434875488 M-13.73900032043457,13.744000434875488 C-13.73900032043457,13.744000434875488 -13.73900032043457,-2.5390000343322754 -13.73900032043457,-2.5390000343322754 C-13.73900032043457,-8.720000267028809 -8.72599983215332,-13.744000434875488 -2.5350000858306885,-13.744000434875488 C-2.5350000858306885,-13.744000434875488 13.73900032043457,-13.744000434875488 13.73900032043457,-13.744000434875488"/></g></g></g><g transform="matrix(0.9999289512634277,0.011920296587049961,-0.011920296587049961,0.9999289512634277,-114.8375015258789,39.46205520629883)" opacity="1" style="display: block;"><g opacity="1" transform="matrix(1,0,0,1,395.04998779296875,236.6269989013672)"><path class="primary" fill="rgb(249,201,192)" fill-opacity="1" d=" M72.18800354003906,34.48500061035156 C72.18800354003906,34.48500061035156 13.208000183105469,73.94300079345703 -16.28700065612793,93.66699981689453 C-16.28700065612793,93.66699981689453 9.312000274658203,91.96199798583984 9.312000274658203,91.96199798583984 C9.312000274658203,91.96199798583984 34.14500045776367,72.46199798583984 34.14500045776367,72.46199798583984 C46.849998474121094,72.46199798583984 12.567851066589355,62.51460266113281 12.485344886779785,49.811649322509766 C12.485344886779785,49.811649322509766 2.946368932723999,-35.22581481933594 2.946368932723999,-35.22581481933594 C2.946368932723999,-35.22581481933594 -46.01503372192383,-53.104225158691406 -46.01503372192383,-53.104225158691406 C-56.9069709777832,-57.032371520996094 -62.59220504760742,-69.21526336669922 -58.634674072265625,-80.17687225341797 C-55.472042083740234,-88.93701171875 -47.06380844116211,-94.3782730102539 -38.26255798339844,-94.2177734375 C-39.04322814941406,-94.21397399902344 -33.788673400878906,-93.7809066772461 -31.5924129486084,-92.98365783691406 C-31.5924129486084,-92.98365783691406 3.1753101348876953,-78.94851684570312 3.1753101348876953,-78.94851684570312 C3.1753101348876953,-78.94851684570312 35.32940673828125,-67.40071868896484 35.32940673828125,-67.40071868896484 C35.32940673828125,-67.40071868896484 35.36486053466797,-67.39103698730469 35.373451232910156,-67.3729019165039 C40.26646423339844,-64.66670989990234 44.526363372802734,-59.683197021484375 46.01579284667969,-53.8474006652832 C46.01579284667969,-53.8474006652832 61.393001556396484,0.9419999718666077 61.393001556396484,0.9419999718666077 C61.393001556396484,0.9419999718666077 72.18800354003906,34.48500061035156 72.18800354003906,34.48500061035156z"/></g><g opacity="1" transform="matrix(1,0,0,1,431.4129943847656,313.5840148925781)"><path class="quaternary" fill="rgb(235,230,239)" fill-opacity="1" d=" M35.814998626708984,-42.4640007019043 C35.814998626708984,-42.4640007019043 52.143001556396484,-18.066999435424805 52.143001556396484,-18.066999435424805 C53.064998626708984,-16.690000534057617 52.69599914550781,-14.82800006866455 51.319000244140625,-13.906000137329102 C51.319000244140625,-13.906000137329102 -32.143001556396484,41.957000732421875 -32.143001556396484,41.957000732421875 C-33.52000045776367,42.87900161743164 -35.38199996948242,42.50899887084961 -36.30400085449219,41.13199996948242 C-36.30400085449219,41.13199996948242 -52.6510009765625,16.70800018310547 -52.6510009765625,16.70800018310547"/></g><g opacity="0.5" transform="matrix(1,0,0,1,398.39801025390625,336.6199951171875)" style="mix-blend-mode: multiply;"><path class="quaternary" fill="rgb(235,230,239)" fill-opacity="1" d=" M19.635000228881836,5.817999839782715 C18.257999420166016,6.739999771118164 16.395999908447266,6.370999813079834 15.473999977111816,4.99399995803833 C15.473999977111816,4.99399995803833 -0.7210000157356262,-19.202999114990234 -0.7210000157356262,-19.202999114990234 C-0.7210000157356262,-19.202999114990234 -19.635000228881836,-6.552999973297119 -19.635000228881836,-6.552999973297119 C-19.635000228881836,-6.552999973297119 -3.2890000343322754,17.871999740600586 -3.2890000343322754,17.871999740600586 C-2.368000030517578,19.249000549316406 -0.5040000081062317,19.617000579833984 0.8730000257492065,18.695999145507812"/></g><g opacity="0.5" transform="matrix(1,0,0,1,0,0)" style="mix-blend-mode: multiply;"><path class="primary" fill="rgb(249,201,192)" fill-opacity="1" d=" M346.52178955078125,144.97683715820312 C340.3902893066406,147.752685546875 335.5507507324219,155.48593139648438 335.28875732421875,162.47386169433594 C335.0892028808594,167.79339599609375 336.6464538574219,178.5393829345703 347.65081787109375,182.99444580078125 C360.93817138671875,188.37449645996094 388.6183166503906,197.54783630371094 401.0205078125,202.27130126953125 C401.2174987792969,191.53456115722656 392.43646240234375,180.0397491455078 384.2469787597656,177.14195251464844 C376.0574951171875,174.24415588378906 371.51593017578125,172.13021850585938 361.34271240234375,168.44676208496094 C345.6659851074219,162.77101135253906 346.67535400390625,150.2249298095703 346.52178955078125,144.97683715820312z"/></g></g></g></g></svg>